<svg xmlns="http://www.w3.org/2000/svg" style="display: none;">
  <symbol id="Share" viewBox="0 0 16 16">
    <path fill-rule="nonzero" d="M10.4999 6C7.53819 6.00085 4.94618 8.00758 4.20349 10.8746C4.17025 11.003 4.18936 11.1393 4.25661 11.2536C4.32387 11.3679 4.43377 11.4508 4.56213 11.484C4.6905 11.5173 4.82682 11.4981 4.94109 11.4309C5.05537 11.3636 5.13826 11.2537 5.17151 11.1254C5.80119 8.69457 7.98899 7.00077 10.5 7H14C14.1326 7 14.2598 6.94732 14.3536 6.85355C14.4473 6.75979 14.5 6.63261 14.5 6.5C14.5 6.36739 14.4473 6.24021 14.3536 6.14645C14.2598 6.05268 14.1326 6 14 6H10.5C10.5 6 10.4999 6 10.4999 6H10.4999ZM11 3C10.8674 3.00002 10.7402 3.05271 10.6465 3.14648C10.5527 3.24025 10.5001 3.36741 10.5001 3.5C10.5001 3.63259 10.5527 3.75975 10.6465 3.85352L13.293 6.5L10.6465 9.14648C10.5527 9.24025 10.5001 9.36741 10.5001 9.5C10.5001 9.63259 10.5527 9.75975 10.6465 9.85352C10.7402 9.94726 10.8674 9.99992 11 9.99992C11.1326 9.99992 11.2598 9.94726 11.3535 9.85352L14.3535 6.85352C14.4472 6.75974 14.4999 6.63259 14.4999 6.5C14.4999 6.36741 14.4472 6.24026 14.3535 6.14648L11.3535 3.14648C11.2598 3.05271 11.1326 3.00002 11 3ZM2 5C1.86739 5 1.74021 5.05268 1.64645 5.14645C1.55268 5.24021 1.5 5.36739 1.5 5.5V13C1.5 13 1.5 13.0001 1.5 13.0001C1.50007 13.5464 1.95357 13.9999 2.49988 14C2.49992 14 2.49996 14 2.5 14H12C12.1326 14 12.2598 13.9473 12.3536 13.8536C12.4473 13.7598 12.5 13.6326 12.5 13.5C12.5 13.3674 12.4473 13.2402 12.3536 13.1464C12.2598 13.0527 12.1326 13 12 13H2.50012H2.5V5.5C2.5 5.36739 2.44732 5.24021 2.35355 5.14645C2.25979 5.05268 2.13261 5 2 5Z"/>
  </symbol>
</svg>

