<?xml version="1.0" encoding="UTF-8" standalone="no"?>
<!-- Created with Inkscape (http://www.inkscape.org/) -->

<svg
   version="1.1"
   id="svg1"
   width="2668"
   height="2668"
   viewBox="0 0 2668 2668"
   sodipodi:docname="vecteezy_share-action-icon_58235432.eps"
   xmlns:inkscape="http://www.inkscape.org/namespaces/inkscape"
   xmlns:sodipodi="http://sodipodi.sourceforge.net/DTD/sodipodi-0.dtd"
   xmlns="http://www.w3.org/2000/svg"
   xmlns:svg="http://www.w3.org/2000/svg">
  <defs
     id="defs1" />
  <sodipodi:namedview
     id="namedview1"
     pagecolor="#ffffff"
     bordercolor="#000000"
     borderopacity="0.25"
     inkscape:showpageshadow="2"
     inkscape:pageopacity="0.0"
     inkscape:pagecheckerboard="0"
     inkscape:deskcolor="#d1d1d1">
    <inkscape:page
       x="0"
       y="0"
       inkscape:label="1"
       id="page1"
       width="2668"
       height="2668"
       margin="0"
       bleed="0" />
  </sodipodi:namedview>
  <g
     id="g1"
     inkscape:groupmode="layer"
     inkscape:label="1">
    <g
       id="group-R5">
      <path
         id="path2"
         d="M 20005,5 H 5 V 20005 H 20005 V 5"
         style="fill:#ffffff;fill-opacity:1;fill-rule:nonzero;stroke:none"
         transform="matrix(0.13333333,0,0,-0.13333333,0,2668)" />
      <path
         id="path3"
         d="M 20005,5 H 5 v 20000 h 20000 z"
         style="fill:none;stroke:#211d1d;stroke-width:10;stroke-linecap:butt;stroke-linejoin:miter;stroke-miterlimit:10;stroke-dasharray:none;stroke-opacity:1"
         transform="matrix(0.13333333,0,0,-0.13333333,0,2668)" />
      <path
         id="path4"
         d="m 13627.4,15876.6 2289.1,-2261.4 c 117.6,-118.3 208.9,-260 267.6,-416.3 58.1,-156.3 83,-323 71.3,-489.6 -7.6,-140.4 -45,-278 -109.3,-402.5 -64.3,-125.2 -154.2,-235.9 -264.2,-323.7 L 13627.4,9652.6 c -89.9,-86.5 -207.4,-137.7 -331.9,-145.3 -66.4,-0.6 -132.8,11.8 -194.3,36.7 -61.6,24.9 -117.6,61.5 -165.3,108.6 -91.3,89.9 -145.2,210.2 -152.8,338.2 -8.3,127.2 31.8,253.1 111.3,353.3 l 1839.5,1929.5 H 12576.3 C 11247.1,12271.5 9972.56,11743.2 9032.74,10803.3 8092.91,9863.5 7564.56,8589 7562.48,7259.8 c 0,-137.6 -54.63,-269.7 -152.14,-366.5 -96.81,-97.6 -228.9,-152.2 -366.52,-152.2 -137.62,0 -269.71,54.6 -366.53,152.2 -97.51,96.8 -152.14,228.9 -152.14,366.5 2.08,1604.4 639.69,3142.4 1774.54,4276.6 1134.16,1134.8 2672.21,1772.4 4276.61,1774.5 h 2240.6 l -1881,1874.1 c -82.3,96.2 -127.3,219.3 -127.3,345.8 0,126.6 45,249.7 127.3,345.8 94.7,85 217.8,132.1 345.8,132.1 127.2,0 250.3,-47.1 345.7,-132.1 z M 15144,7718.3 c 63,26.3 130.7,39.4 198.5,39.4 136.9,-2.1 267.6,-56.7 365.2,-154.2 96.8,-96.8 152.1,-227.5 153.5,-364.5 V 5164.4 c 6.2,-160.5 -21.5,-320.2 -80.2,-469.6 -58.8,-150.1 -148,-285.6 -261.5,-399 -113.4,-113.5 -248.9,-202.7 -398.3,-261.4 -150.1,-58.8 -309.8,-85.8 -470.2,-80.3 H 4969.15 c -160.45,-5.5 -320.2,21.5 -469.57,80.3 -150.07,58.7 -285.62,147.9 -399.03,261.4 -113.42,113.4 -202.63,248.9 -261.41,399 -58.78,149.4 -85.75,309.1 -80.22,469.6 v 9681.8 c -5.53,160.4 21.44,320.2 80.22,470.2 58.78,149.4 147.99,284.9 261.41,398.4 113.41,113.4 248.96,202.6 399.03,261.4 149.37,58.8 309.12,85.7 469.57,80.2 h 2074.67 c 137.62,0 269.71,-54.6 366.52,-152.1 97.51,-96.9 152.14,-228.9 152.14,-366.6 0,-137.6 -54.63,-269.7 -152.14,-366.5 -96.81,-97.5 -228.9,-152.1 -366.52,-152.1 H 4969.15 c -131.4,0 -172.89,-48.4 -172.89,-172.9 V 5164.4 c 0,-131.4 41.49,-172.9 172.89,-172.9 H 14651 c 131.4,0 172.8,41.5 172.8,172.9 V 7239 c 0,67.8 13.9,135.6 39.5,198.5 26.2,62.9 64.3,120.3 112.7,168.1 47.7,48.4 105.1,86.4 168,112.7"
         style="fill:#100f0d;fill-opacity:1;fill-rule:evenodd;stroke:none"
         transform="matrix(0.13333333,0,0,-0.13333333,0,2668)" />
    </g>
  </g>
</svg>
